<svg xmlns="http://www.w3.org/2000/svg" width="20" height="20" viewBox="0 0 20 20" fill="none">
<g clip-path="url(#clip0_2356_20847)">
<path d="M17.0923 12.6705L15.5923 11.1621V7.44548C15.6123 6.06533 15.1322 4.72457 14.2408 3.67076C13.3493 2.61695 12.1067 1.92126 10.7423 1.71214C9.95051 1.60787 9.14555 1.67366 8.38117 1.90512C7.61679 2.13659 6.91056 2.52841 6.3096 3.05444C5.70865 3.58048 5.22678 4.22862 4.89617 4.95564C4.56555 5.68265 4.39379 6.47182 4.39233 7.27048V11.1621L2.89233 12.6705C2.70392 12.862 2.57615 13.1049 2.525 13.3686C2.47384 13.6324 2.50158 13.9054 2.60473 14.1535C2.70788 14.4016 2.88187 14.6138 3.10496 14.7635C3.32804 14.9133 3.59031 14.994 3.859 14.9955H6.659V15.2788C6.69792 16.1248 7.07062 16.9209 7.69543 17.4926C8.32024 18.0643 9.14621 18.365 9.99233 18.3288C10.8385 18.365 11.6644 18.0643 12.2892 17.4926C12.914 16.9209 13.2867 16.1248 13.3257 15.2788V14.9955H16.1257C16.3943 14.994 16.6566 14.9133 16.8797 14.7635C17.1028 14.6138 17.2768 14.4016 17.3799 14.1535C17.4831 13.9054 17.5108 13.6324 17.4597 13.3686C17.4085 13.1049 17.2807 12.862 17.0923 12.6705ZM11.659 15.2788C11.6128 15.6796 11.4137 16.0472 11.1032 16.3049C10.7927 16.5626 10.3948 16.6906 9.99233 16.6621C9.58984 16.6906 9.19191 16.5626 8.88144 16.3049C8.57096 16.0472 8.37188 15.6796 8.32566 15.2788V14.9955H11.659V15.2788Z" fill="#FAFF00"/>
</g>
<defs>
<clipPath id="clip0_2356_20847">
<rect width="20" height="20" fill="white"/>
</clipPath>
</defs>
</svg>