<svg xmlns="http://www.w3.org/2000/svg" width="12" height="12" viewBox="0 0 12 12" fill="#22BDFF">
<path d="M11 0H1C0.734784 0 0.48043 0.105357 0.292893 0.292893C0.105357 0.48043 0 0.734784 0 1V11C0 11.2652 0.105357 11.5196 0.292893 11.7071C0.48043 11.8946 0.734784 12 1 12H11C11.2652 12 11.5196 11.8946 11.7071 11.7071C11.8946 11.5196 12 11.2652 12 11V1C12 0.734784 11.8946 0.48043 11.7071 0.292893C11.5196 0.105357 11.2652 0 11 0ZM5 8.75L2.5 6.27135L3.2954 5.5L5 7.1728L8.70435 3.5L9.50025 4.2886L5 8.75Z"/>
</svg>