<svg xmlns="http://www.w3.org/2000/svg" width="0.333333in" height="0.333333in" viewBox="0 0 100 100">
  <path id="Selection #2" stroke="black" stroke-width="1" d="M 40.00,0.46            C 56.96,-1.88 73.52,1.60 85.96,14.04              109.73,37.81 103.14,80.12 73.00,95.19              63.07,100.16 56.67,100.12 46.00,100.00              22.00,99.71 0.29,78.00 0.00,54.00              0.00,54.00 0.00,48.00 0.00,48.00              0.04,23.64 16.68,5.64 40.00,0.46 Z            M 51.00,4.71            C 42.45,4.90 36.63,5.57 29.00,9.87              -4.71,28.87 -1.20,77.65 34.00,91.54              39.49,93.70 46.12,94.48 52.00,94.26              58.73,94.00 63.89,93.24 70.00,90.19              102.53,73.96 104.26,28.99 73.00,10.45              65.06,5.74 59.94,5.15 51.00,4.71 Z            M 26.00,20.00            C 26.00,20.00 73.00,20.00 73.00,20.00              73.00,20.00 73.00,32.00 73.00,32.00              73.00,32.00 44.00,32.00 44.00,32.00              44.00,32.00 44.00,43.00 44.00,43.00              44.00,43.00 71.00,43.00 71.00,43.00              71.00,43.00 71.00,55.00 71.00,55.00              71.00,55.00 44.00,55.00 44.00,55.00              44.00,55.00 44.00,71.00 44.00,71.00              44.00,71.00 73.00,71.00 73.00,71.00              73.00,71.00 73.00,83.00 73.00,83.00              73.00,83.00 26.00,83.00 26.00,83.00              26.00,83.00 26.00,20.00 26.00,20.00 Z"/>
</svg>