<svg xmlns="http://www.w3.org/2000/svg" width="20" height="20" viewBox="0 0 20 20" fill="none">
<g clip-path="url(#clip0_2356_21863)">
<path d="M13.2401 15.5896L12.7484 15.0979L11.6734 13.9813L11.6151 13.9229L5.49008 7.83125L4.43175 6.78125C4.42323 6.94503 4.42323 7.10914 4.43175 7.27292V11.1646L2.93175 12.6729C2.74471 12.8629 2.61733 13.1035 2.56532 13.365C2.51331 13.6265 2.53892 13.8975 2.63902 14.1447C2.73911 14.3918 2.9093 14.6043 3.12864 14.7559C3.34797 14.9075 3.60686 14.9916 3.87341 14.9979H6.67341V15.2812C6.71234 16.1273 7.08504 16.9233 7.70985 17.495C8.33466 18.0667 9.16062 18.3674 10.0067 18.3312C10.7939 18.367 11.567 18.114 12.1808 17.6199C12.7946 17.1258 13.2069 16.4245 13.3401 15.6479L13.2401 15.5896ZM11.6734 15.2812C11.6272 15.6821 11.4281 16.0496 11.1176 16.3073C10.8072 16.565 10.4092 16.693 10.0067 16.6646C9.60426 16.693 9.20633 16.565 8.89585 16.3073C8.58538 16.0496 8.3863 15.6821 8.34008 15.2812V14.9979H11.6734V15.2812Z" fill="#9A9D05"/>
<path d="M5.94427 3.58024L7.16094 4.79691L15.1026 12.7386L16.7693 14.4052L17.0276 14.6552C17.1909 14.5211 17.3195 14.3496 17.4026 14.1552C17.5075 13.9071 17.5358 13.6333 17.4839 13.3689C17.4319 13.1046 17.302 12.8618 17.1109 12.6719L15.6109 11.1636V7.44691C15.6306 6.06553 15.1494 4.72376 14.2562 3.66976C13.3631 2.61577 12.1185 1.92086 10.7526 1.71357C9.96068 1.60748 9.15523 1.67234 8.39048 1.90378C7.62574 2.13521 6.91948 2.52785 6.31927 3.05524C6.14965 3.19583 5.98827 3.34608 5.83594 3.50524L5.94427 3.58024Z" fill="#9A9D05"/>
<path d="M17.2617 16.0706L16.1784 14.9956L14.5117 13.3289L6.57841 5.38726L5.35341 4.16226L3.92841 2.73726C3.85071 2.65957 3.75847 2.59793 3.65695 2.55588C3.55543 2.51383 3.44663 2.49219 3.33674 2.49219C3.22686 2.49219 3.11805 2.51383 3.01654 2.55588C2.91502 2.59793 2.82278 2.65957 2.74508 2.73726C2.58816 2.89418 2.5 3.10701 2.5 3.32893C2.5 3.55085 2.58816 3.76368 2.74508 3.9206L4.61174 5.82893L6.07008 7.2456L12.1617 13.3289L12.2201 13.3873L13.3367 14.5039L13.8284 14.9956L16.0784 17.2539C16.1559 17.332 16.248 17.394 16.3496 17.4363C16.4511 17.4786 16.5601 17.5004 16.6701 17.5004C16.7801 17.5004 16.889 17.4786 16.9906 17.4363C17.0921 17.394 17.1843 17.332 17.2617 17.2539C17.3398 17.1765 17.4018 17.0843 17.4442 16.9827C17.4865 16.8812 17.5082 16.7723 17.5082 16.6623C17.5082 16.5523 17.4865 16.4433 17.4442 16.3418C17.4018 16.2402 17.3398 16.1481 17.2617 16.0706Z" fill="#868686"/>
</g>
<defs>
<clipPath id="clip0_2356_21863">
<rect width="20" height="20" fill="white"/>
</clipPath>
</defs>
</svg>