<svg xmlns="http://www.w3.org/2000/svg" width="151" height="40" viewBox="0 0 151 40" fill="none">
<path d="M91.005 24.035L89.04 15.14C88.99 14.87 88.93 14.56 88.86 14.21C88.79 13.85 88.73 13.465 88.68 13.055C88.53 13.475 88.38 13.86 88.23 14.21C88.08 14.56 87.945 14.875 87.825 15.155L83.67 24.035H91.005ZM95.67 32H93.51C93.26 32 93.065 31.94 92.925 31.82C92.785 31.69 92.685 31.525 92.625 31.325L91.455 26.075H82.71L80.25 31.325C80.16 31.505 80.02 31.665 79.83 31.805C79.65 31.935 79.445 32 79.215 32H77.025L87.555 10.505H90.405L95.67 32ZM97.8858 32L100.571 9.905H103.196L100.511 32H97.8858ZM112.274 18.515C111.644 18.515 111.064 18.645 110.534 18.905C110.004 19.165 109.534 19.525 109.124 19.985C108.714 20.435 108.364 20.97 108.074 21.59C107.784 22.2 107.559 22.86 107.399 23.57C108.939 23.38 110.174 23.165 111.104 22.925C112.034 22.675 112.749 22.41 113.249 22.13C113.749 21.84 114.079 21.53 114.239 21.2C114.399 20.87 114.479 20.525 114.479 20.165C114.479 19.985 114.439 19.8 114.359 19.61C114.279 19.41 114.149 19.23 113.969 19.07C113.799 18.91 113.574 18.78 113.294 18.68C113.014 18.57 112.674 18.515 112.274 18.515ZM116.504 29.195C115.994 29.725 115.494 30.18 115.004 30.56C114.514 30.93 114.014 31.24 113.504 31.49C113.004 31.74 112.474 31.92 111.914 32.03C111.364 32.15 110.769 32.21 110.129 32.21C109.259 32.21 108.479 32.065 107.789 31.775C107.099 31.485 106.514 31.075 106.034 30.545C105.554 30.005 105.184 29.355 104.924 28.595C104.664 27.835 104.534 26.985 104.534 26.045C104.534 25.265 104.614 24.49 104.774 23.72C104.944 22.94 105.184 22.2 105.494 21.5C105.814 20.8 106.199 20.15 106.649 19.55C107.109 18.95 107.629 18.435 108.209 18.005C108.799 17.565 109.444 17.22 110.144 16.97C110.854 16.72 111.614 16.595 112.424 16.595C113.194 16.595 113.859 16.705 114.419 16.925C114.979 17.145 115.439 17.425 115.799 17.765C116.159 18.105 116.424 18.48 116.594 18.89C116.774 19.3 116.864 19.69 116.864 20.06C116.864 20.72 116.729 21.33 116.459 21.89C116.189 22.44 115.694 22.94 114.974 23.39C114.254 23.83 113.264 24.215 112.004 24.545C110.744 24.875 109.124 25.14 107.144 25.34C107.144 25.45 107.139 25.56 107.129 25.67C107.129 25.77 107.129 25.875 107.129 25.985C107.129 27.325 107.419 28.35 107.999 29.06C108.589 29.76 109.474 30.11 110.654 30.11C111.134 30.11 111.559 30.06 111.929 29.96C112.309 29.86 112.644 29.74 112.934 29.6C113.234 29.45 113.494 29.29 113.714 29.12C113.944 28.94 114.149 28.78 114.329 28.64C114.519 28.49 114.694 28.365 114.854 28.265C115.014 28.165 115.174 28.115 115.334 28.115C115.524 28.115 115.694 28.2 115.844 28.37L116.504 29.195ZM122.715 21.035C123.115 20.185 123.545 19.45 124.005 18.83C124.475 18.2 124.965 17.71 125.475 17.36C125.985 17 126.51 16.785 127.05 16.715C127.59 16.635 128.14 16.715 128.7 16.955L128.22 19.52C126.92 19 125.77 19.19 124.77 20.09C123.78 20.99 122.975 22.615 122.355 24.965L121.515 32H118.905L120.735 16.79H122.055C122.665 16.79 122.97 17.09 122.97 17.69L122.715 21.035ZM130.358 29.135C130.358 29.075 130.358 29 130.358 28.91C130.358 28.81 130.363 28.67 130.373 28.49C130.393 28.31 130.418 28.075 130.448 27.785C130.488 27.495 130.538 27.115 130.598 26.645L131.528 19.04H129.833C129.693 19.04 129.578 18.995 129.488 18.905C129.408 18.805 129.378 18.655 129.398 18.455L129.518 17.39L131.858 17.075L132.998 12.38C133.048 12.23 133.123 12.11 133.223 12.02C133.333 11.92 133.468 11.87 133.628 11.87H135.023L134.378 17.105H138.368L138.143 19.04H134.138L133.223 26.51C133.173 26.92 133.133 27.25 133.103 27.5C133.073 27.75 133.048 27.95 133.028 28.1C133.018 28.25 133.008 28.355 132.998 28.415C132.998 28.475 132.998 28.52 132.998 28.55C132.998 29.06 133.118 29.44 133.358 29.69C133.598 29.93 133.918 30.05 134.318 30.05C134.588 30.05 134.818 30.015 135.008 29.945C135.208 29.865 135.383 29.78 135.533 29.69C135.683 29.6 135.808 29.52 135.908 29.45C136.008 29.37 136.093 29.33 136.163 29.33C136.253 29.33 136.318 29.35 136.358 29.39C136.408 29.43 136.453 29.495 136.493 29.585L137.063 30.86C136.573 31.29 136.013 31.63 135.383 31.88C134.763 32.12 134.138 32.24 133.508 32.24C132.538 32.24 131.773 31.975 131.213 31.445C130.663 30.915 130.378 30.145 130.358 29.135ZM149.588 19.235C149.508 19.355 149.428 19.445 149.348 19.505C149.268 19.555 149.168 19.58 149.048 19.58C148.908 19.58 148.753 19.525 148.583 19.415C148.423 19.305 148.223 19.185 147.983 19.055C147.753 18.915 147.468 18.79 147.128 18.68C146.788 18.56 146.378 18.5 145.898 18.5C145.448 18.5 145.038 18.565 144.668 18.695C144.298 18.815 143.978 18.985 143.708 19.205C143.448 19.425 143.243 19.685 143.093 19.985C142.953 20.275 142.883 20.585 142.883 20.915C142.883 21.385 143.038 21.76 143.348 22.04C143.658 22.32 144.048 22.565 144.518 22.775C144.988 22.975 145.493 23.17 146.033 23.36C146.573 23.55 147.078 23.79 147.548 24.08C148.018 24.37 148.408 24.74 148.718 25.19C149.028 25.64 149.183 26.225 149.183 26.945C149.183 27.645 149.043 28.315 148.763 28.955C148.493 29.595 148.098 30.16 147.578 30.65C147.068 31.13 146.448 31.515 145.718 31.805C144.998 32.095 144.188 32.24 143.288 32.24C142.318 32.24 141.458 32.07 140.708 31.73C139.968 31.38 139.363 30.935 138.893 30.395L139.553 29.375C139.643 29.245 139.738 29.145 139.838 29.075C139.948 29.005 140.088 28.97 140.258 28.97C140.418 28.97 140.578 29.04 140.738 29.18C140.898 29.32 141.098 29.48 141.338 29.66C141.578 29.83 141.878 29.985 142.238 30.125C142.608 30.265 143.073 30.335 143.633 30.335C144.123 30.335 144.563 30.26 144.953 30.11C145.353 29.96 145.688 29.76 145.958 29.51C146.238 29.26 146.448 28.97 146.588 28.64C146.738 28.3 146.813 27.94 146.813 27.56C146.813 27.05 146.658 26.645 146.348 26.345C146.038 26.045 145.648 25.795 145.178 25.595C144.708 25.395 144.203 25.21 143.663 25.04C143.123 24.86 142.618 24.635 142.148 24.365C141.678 24.085 141.288 23.725 140.978 23.285C140.668 22.845 140.513 22.26 140.513 21.53C140.513 20.89 140.638 20.275 140.888 19.685C141.148 19.085 141.518 18.555 141.998 18.095C142.478 17.635 143.058 17.27 143.738 17C144.428 16.72 145.203 16.58 146.063 16.58C146.973 16.58 147.773 16.735 148.463 17.045C149.163 17.345 149.763 17.755 150.263 18.275L149.588 19.235Z" fill="#D60E0E"/>
<path d="M1.26 10.76C1.68 10.78 2.23 10.8 2.91 10.82C3.59 10.84 4.26 10.85 4.92 10.85C5.86 10.85 6.76 10.84 7.62 10.82C8.48 10.8 9.09 10.79 9.45 10.79C11.87 10.79 13.68 11.34 14.88 12.44C16.08 13.54 16.68 14.96 16.68 16.7C16.68 17.42 16.56 18.18 16.32 18.98C16.08 19.76 15.66 20.49 15.06 21.17C14.48 21.83 13.68 22.37 12.66 22.79C11.64 23.21 10.35 23.42 8.79 23.42H5.91V22.82H8.49C9.91 22.82 10.99 22.55 11.73 22.01C12.49 21.47 13 20.76 13.26 19.88C13.54 19 13.68 18.05 13.68 17.03C13.68 15.13 13.3 13.71 12.54 12.77C11.8 11.83 10.52 11.36 8.7 11.36C7.78 11.36 7.18 11.53 6.9 11.87C6.62 12.21 6.48 12.9 6.48 13.94V28.82C6.48 29.54 6.55 30.08 6.69 30.44C6.85 30.8 7.15 31.04 7.59 31.16C8.03 31.28 8.67 31.36 9.51 31.4V32C8.99 31.96 8.33 31.94 7.53 31.94C6.73 31.92 5.92 31.91 5.1 31.91C4.32 31.91 3.59 31.92 2.91 31.94C2.23 31.94 1.68 31.96 1.26 32V31.4C1.94 31.36 2.45 31.28 2.79 31.16C3.15 31.04 3.39 30.8 3.51 30.44C3.63 30.08 3.69 29.54 3.69 28.82V13.94C3.69 13.2 3.63 12.66 3.51 12.32C3.39 11.96 3.15 11.72 2.79 11.6C2.45 11.46 1.94 11.38 1.26 11.36V10.76ZM18.8088 10.76C19.2288 10.78 19.7788 10.8 20.4588 10.82C21.1388 10.84 21.8088 10.85 22.4688 10.85C23.4088 10.85 24.3088 10.84 25.1688 10.82C26.0288 10.8 26.6388 10.79 26.9988 10.79C28.6188 10.79 29.9588 11.02 31.0188 11.48C32.0988 11.94 32.8988 12.57 33.4188 13.37C33.9588 14.15 34.2288 15.03 34.2288 16.01C34.2288 16.61 34.1088 17.25 33.8688 17.93C33.6288 18.61 33.2088 19.25 32.6088 19.85C32.0288 20.45 31.2288 20.95 30.2088 21.35C29.1888 21.73 27.8988 21.92 26.3388 21.92H23.4588V21.32H26.0388C27.4588 21.32 28.5388 21.1 29.2788 20.66C30.0388 20.2 30.5488 19.6 30.8088 18.86C31.0888 18.1 31.2288 17.26 31.2288 16.34C31.2288 14.76 30.8488 13.54 30.0888 12.68C29.3488 11.8 28.0688 11.36 26.2488 11.36C25.3288 11.36 24.7288 11.53 24.4488 11.87C24.1688 12.21 24.0288 12.9 24.0288 13.94V28.82C24.0288 29.54 24.0888 30.08 24.2088 30.44C24.3288 30.8 24.5588 31.04 24.8988 31.16C25.2588 31.28 25.7788 31.36 26.4588 31.4V32C25.9988 31.96 25.4188 31.94 24.7188 31.94C24.0388 31.92 23.3488 31.91 22.6488 31.91C21.8688 31.91 21.1388 31.92 20.4588 31.94C19.7788 31.94 19.2288 31.96 18.8088 32V31.4C19.4888 31.36 19.9988 31.28 20.3388 31.16C20.6988 31.04 20.9388 30.8 21.0588 30.44C21.1788 30.08 21.2388 29.54 21.2388 28.82V13.94C21.2388 13.2 21.1788 12.66 21.0588 12.32C20.9388 11.96 20.6988 11.72 20.3388 11.6C19.9988 11.46 19.4888 11.38 18.8088 11.36V10.76ZM23.5788 21.41C24.6588 21.45 25.5088 21.5 26.1288 21.56C26.7488 21.6 27.2488 21.64 27.6288 21.68C28.0288 21.72 28.4088 21.77 28.7688 21.83C30.1088 22.05 31.0688 22.46 31.6488 23.06C32.2488 23.64 32.6888 24.55 32.9688 25.79L33.7188 28.85C33.9188 29.73 34.1188 30.37 34.3188 30.77C34.5388 31.15 34.8688 31.33 35.3088 31.31C35.6488 31.29 35.9288 31.18 36.1488 30.98C36.3888 30.78 36.6388 30.51 36.8988 30.17L37.3488 30.5C36.9288 31.12 36.4888 31.6 36.0288 31.94C35.5888 32.26 34.9588 32.42 34.1388 32.42C33.3988 32.42 32.7488 32.2 32.1888 31.76C31.6288 31.32 31.2088 30.46 30.9288 29.18L30.2688 26.18C30.0888 25.32 29.8788 24.58 29.6388 23.96C29.4188 23.32 29.0988 22.82 28.6788 22.46C28.2788 22.1 27.6788 21.92 26.8788 21.92H23.6388L23.5788 21.41ZM48.132 10.34C50.032 10.34 51.692 10.77 53.112 11.63C54.552 12.49 55.662 13.73 56.442 15.35C57.242 16.95 57.642 18.9 57.642 21.2C57.642 23.44 57.232 25.4 56.412 27.08C55.612 28.76 54.492 30.07 53.052 31.01C51.612 31.95 49.962 32.42 48.102 32.42C46.202 32.42 44.532 31.99 43.092 31.13C41.672 30.27 40.562 29.03 39.762 27.41C38.982 25.79 38.592 23.84 38.592 21.56C38.592 19.32 39.002 17.36 39.822 15.68C40.642 14 41.762 12.69 43.182 11.75C44.622 10.81 46.272 10.34 48.132 10.34ZM48.012 10.88C46.712 10.88 45.582 11.33 44.622 12.23C43.662 13.13 42.912 14.37 42.372 15.95C41.852 17.53 41.592 19.36 41.592 21.44C41.592 23.56 41.882 25.41 42.462 26.99C43.062 28.55 43.862 29.76 44.862 30.62C45.882 31.46 47.002 31.88 48.222 31.88C49.522 31.88 50.652 31.43 51.612 30.53C52.572 29.63 53.312 28.39 53.832 26.81C54.372 25.21 54.642 23.38 54.642 21.32C54.642 19.18 54.342 17.33 53.742 15.77C53.162 14.21 52.372 13.01 51.372 12.17C50.372 11.31 49.252 10.88 48.012 10.88ZM66.9183 10.43C67.9183 10.43 68.6783 10.55 69.1983 10.79C69.7183 11.01 70.1783 11.26 70.5783 11.54C70.8183 11.68 71.0083 11.79 71.1483 11.87C71.3083 11.93 71.4583 11.96 71.5983 11.96C71.7983 11.96 71.9383 11.85 72.0183 11.63C72.1183 11.41 72.1983 11.08 72.2583 10.64H72.9483C72.9283 10.98 72.8983 11.39 72.8583 11.87C72.8383 12.33 72.8183 12.95 72.7983 13.73C72.7983 14.49 72.7983 15.5 72.7983 16.76H72.1083C72.0483 15.8 71.8383 14.88 71.4783 14C71.1183 13.12 70.5883 12.4 69.8883 11.84C69.2083 11.28 68.3083 11 67.1883 11C66.1283 11 65.2483 11.32 64.5483 11.96C63.8683 12.6 63.5283 13.44 63.5283 14.48C63.5283 15.38 63.7583 16.14 64.2183 16.76C64.6783 17.36 65.2883 17.91 66.0483 18.41C66.8283 18.89 67.6683 19.41 68.5683 19.97C69.6083 20.61 70.5283 21.25 71.3283 21.89C72.1483 22.51 72.7883 23.2 73.2483 23.96C73.7283 24.72 73.9683 25.64 73.9683 26.72C73.9683 28 73.6783 29.06 73.0983 29.9C72.5183 30.74 71.7483 31.37 70.7883 31.79C69.8283 32.21 68.7683 32.42 67.6083 32.42C66.5483 32.42 65.7083 32.3 65.0883 32.06C64.4683 31.82 63.9383 31.57 63.4983 31.31C63.0583 31.03 62.7183 30.89 62.4783 30.89C62.2783 30.89 62.1283 31 62.0283 31.22C61.9483 31.44 61.8783 31.77 61.8183 32.21H61.1283C61.1683 31.79 61.1883 31.3 61.1883 30.74C61.2083 30.16 61.2183 29.41 61.2183 28.49C61.2383 27.57 61.2483 26.41 61.2483 25.01H61.9383C62.0183 26.21 62.2383 27.33 62.5983 28.37C62.9783 29.41 63.5483 30.25 64.3083 30.89C65.0883 31.51 66.1183 31.82 67.3983 31.82C68.0583 31.82 68.6783 31.69 69.2583 31.43C69.8583 31.15 70.3483 30.72 70.7283 30.14C71.1083 29.54 71.2983 28.77 71.2983 27.83C71.2983 27.01 71.0983 26.3 70.6983 25.7C70.3183 25.08 69.7783 24.51 69.0783 23.99C68.3783 23.45 67.5583 22.9 66.6183 22.34C65.6783 21.76 64.7983 21.17 63.9783 20.57C63.1583 19.97 62.4983 19.28 61.9983 18.5C61.5183 17.7 61.2783 16.74 61.2783 15.62C61.2783 14.44 61.5383 13.47 62.0583 12.71C62.5983 11.93 63.2983 11.36 64.1583 11C65.0183 10.62 65.9383 10.43 66.9183 10.43Z" fill="#06A357"/>
</svg>