<svg xmlns="http://www.w3.org/2000/svg" width="10" height="10" viewBox="0 0 10 10" fill="none">
<path d="M9.67131 2.2482C9.63931 2.1362 9.49515 2.1042 9.39931 2.1842L7.78331 3.8002C7.65515 3.9282 7.46331 3.9282 7.33515 3.8002L6.19915 2.6642C6.07115 2.5362 6.07115 2.3442 6.19915 2.2162L7.83115 0.584195C7.91115 0.504195 7.87915 0.360195 7.76715 0.312195C7.49531 0.248195 7.20731 0.200195 6.91931 0.200195C5.22331 0.200195 3.86331 1.6722 4.05531 3.4002C4.08731 3.6722 4.15131 3.9122 4.24731 4.1522L0.519313 7.8962C0.0873125 8.3282 0.0873125 9.0482 0.519313 9.4802C0.743312 9.7042 1.03131 9.8162 1.31931 9.8162C1.60731 9.8162 1.89531 9.70436 2.11931 9.4802L5.84731 5.7522C6.08731 5.8482 6.34347 5.9122 6.59931 5.9442C8.34331 6.1362 9.79931 4.7762 9.79931 3.0802C9.79931 2.7922 9.75131 2.5042 9.67131 2.2482V2.2482Z"/>
</svg>