<svg xmlns="http://www.w3.org/2000/svg" width="179" height="40" viewBox="0 0 179 40" fill="none">
<path d="M126.271 25.097L124.568 17.388C124.525 17.154 124.473 16.8853 124.412 16.582C124.351 16.27 124.299 15.9363 124.256 15.581C124.126 15.945 123.996 16.2787 123.866 16.582C123.736 16.8853 123.619 17.1583 123.515 17.401L119.914 25.097H126.271ZM130.314 32H128.442C128.225 32 128.056 31.948 127.935 31.844C127.814 31.7313 127.727 31.5883 127.675 31.415L126.661 26.865H119.082L116.95 31.415C116.872 31.571 116.751 31.7097 116.586 31.831C116.43 31.9437 116.252 32 116.053 32H114.155L123.281 13.371H125.751L130.314 32ZM132.234 32L134.561 12.851H136.836L134.509 32H132.234ZM144.704 20.313C144.158 20.313 143.656 20.4257 143.196 20.651C142.737 20.8763 142.33 21.1883 141.974 21.587C141.619 21.977 141.316 22.4407 141.064 22.978C140.813 23.5067 140.618 24.0787 140.479 24.694C141.814 24.5293 142.884 24.343 143.69 24.135C144.496 23.9183 145.116 23.6887 145.549 23.446C145.983 23.1947 146.269 22.926 146.407 22.64C146.546 22.354 146.615 22.055 146.615 21.743C146.615 21.587 146.581 21.4267 146.511 21.262C146.442 21.0887 146.329 20.9327 146.173 20.794C146.026 20.6553 145.831 20.5427 145.588 20.456C145.346 20.3607 145.051 20.313 144.704 20.313ZM148.37 29.569C147.928 30.0283 147.495 30.4227 147.07 30.752C146.646 31.0727 146.212 31.3413 145.77 31.558C145.337 31.7747 144.878 31.9307 144.392 32.026C143.916 32.13 143.4 32.182 142.845 32.182C142.091 32.182 141.415 32.0563 140.817 31.805C140.219 31.5537 139.712 31.1983 139.296 30.739C138.88 30.271 138.56 29.7077 138.334 29.049C138.109 28.3903 137.996 27.6537 137.996 26.839C137.996 26.163 138.066 25.4913 138.204 24.824C138.352 24.148 138.56 23.5067 138.828 22.9C139.106 22.2933 139.439 21.73 139.829 21.21C140.228 20.69 140.679 20.2437 141.181 19.871C141.693 19.4897 142.252 19.1907 142.858 18.974C143.474 18.7573 144.132 18.649 144.834 18.649C145.502 18.649 146.078 18.7443 146.563 18.935C147.049 19.1257 147.447 19.3683 147.759 19.663C148.071 19.9577 148.301 20.2827 148.448 20.638C148.604 20.9933 148.682 21.3313 148.682 21.652C148.682 22.224 148.565 22.7527 148.331 23.238C148.097 23.7147 147.668 24.148 147.044 24.538C146.42 24.9193 145.562 25.253 144.47 25.539C143.378 25.825 141.974 26.0547 140.258 26.228C140.258 26.3233 140.254 26.4187 140.245 26.514C140.245 26.6007 140.245 26.6917 140.245 26.787C140.245 27.9483 140.497 28.8367 140.999 29.452C141.511 30.0587 142.278 30.362 143.3 30.362C143.716 30.362 144.085 30.3187 144.405 30.232C144.735 30.1453 145.025 30.0413 145.276 29.92C145.536 29.79 145.762 29.6513 145.952 29.504C146.152 29.348 146.329 29.2093 146.485 29.088C146.65 28.958 146.802 28.8497 146.94 28.763C147.079 28.6763 147.218 28.633 147.356 28.633C147.521 28.633 147.668 28.7067 147.798 28.854L148.37 29.569ZM153.753 22.497C154.099 21.7603 154.472 21.1233 154.871 20.586C155.278 20.04 155.703 19.6153 156.145 19.312C156.587 19 157.042 18.8137 157.51 18.753C157.978 18.6837 158.454 18.753 158.94 18.961L158.524 21.184C157.397 20.7333 156.4 20.898 155.534 21.678C154.676 22.458 153.978 23.8663 153.441 25.903L152.713 32H150.451L152.037 18.818H153.181C153.709 18.818 153.974 19.078 153.974 19.598L153.753 22.497ZM160.377 29.517C160.377 29.465 160.377 29.4 160.377 29.322C160.377 29.2353 160.382 29.114 160.39 28.958C160.408 28.802 160.429 28.5983 160.455 28.347C160.49 28.0957 160.533 27.7663 160.585 27.359L161.391 20.768H159.922C159.801 20.768 159.701 20.729 159.623 20.651C159.554 20.5643 159.528 20.4343 159.545 20.261L159.649 19.338L161.677 19.065L162.665 14.996C162.709 14.866 162.774 14.762 162.86 14.684C162.956 14.5973 163.073 14.554 163.211 14.554H164.42L163.861 19.091H167.319L167.124 20.768H163.653L162.86 27.242C162.817 27.5973 162.782 27.8833 162.756 28.1C162.73 28.3167 162.709 28.49 162.691 28.62C162.683 28.75 162.674 28.841 162.665 28.893C162.665 28.945 162.665 28.984 162.665 29.01C162.665 29.452 162.769 29.7813 162.977 29.998C163.185 30.206 163.463 30.31 163.809 30.31C164.043 30.31 164.243 30.2797 164.407 30.219C164.581 30.1497 164.732 30.076 164.862 29.998C164.992 29.92 165.101 29.8507 165.187 29.79C165.274 29.7207 165.348 29.686 165.408 29.686C165.486 29.686 165.543 29.7033 165.577 29.738C165.621 29.7727 165.66 29.829 165.694 29.907L166.188 31.012C165.764 31.3847 165.278 31.6793 164.732 31.896C164.195 32.104 163.653 32.208 163.107 32.208C162.267 32.208 161.604 31.9783 161.118 31.519C160.642 31.0597 160.395 30.3923 160.377 29.517ZM177.043 20.937C176.974 21.041 176.904 21.119 176.835 21.171C176.766 21.2143 176.679 21.236 176.575 21.236C176.454 21.236 176.319 21.1883 176.172 21.093C176.033 20.9977 175.86 20.8937 175.652 20.781C175.453 20.6597 175.206 20.5513 174.911 20.456C174.616 20.352 174.261 20.3 173.845 20.3C173.455 20.3 173.1 20.3563 172.779 20.469C172.458 20.573 172.181 20.7203 171.947 20.911C171.722 21.1017 171.544 21.327 171.414 21.587C171.293 21.8383 171.232 22.107 171.232 22.393C171.232 22.8003 171.366 23.1253 171.635 23.368C171.904 23.6107 172.242 23.823 172.649 24.005C173.056 24.1783 173.494 24.3473 173.962 24.512C174.43 24.6767 174.868 24.8847 175.275 25.136C175.682 25.3873 176.02 25.708 176.289 26.098C176.558 26.488 176.692 26.995 176.692 27.619C176.692 28.2257 176.571 28.8063 176.328 29.361C176.094 29.9157 175.752 30.4053 175.301 30.83C174.859 31.246 174.322 31.5797 173.689 31.831C173.065 32.0823 172.363 32.208 171.583 32.208C170.742 32.208 169.997 32.0607 169.347 31.766C168.706 31.4627 168.181 31.077 167.774 30.609L168.346 29.725C168.424 29.6123 168.506 29.5257 168.593 29.465C168.688 29.4043 168.81 29.374 168.957 29.374C169.096 29.374 169.234 29.4347 169.373 29.556C169.512 29.6773 169.685 29.816 169.893 29.972C170.101 30.1193 170.361 30.2537 170.673 30.375C170.994 30.4963 171.397 30.557 171.882 30.557C172.307 30.557 172.688 30.492 173.026 30.362C173.373 30.232 173.663 30.0587 173.897 29.842C174.14 29.6253 174.322 29.374 174.443 29.088C174.573 28.7933 174.638 28.4813 174.638 28.152C174.638 27.71 174.504 27.359 174.235 27.099C173.966 26.839 173.628 26.6223 173.221 26.449C172.814 26.2757 172.376 26.1153 171.908 25.968C171.44 25.812 171.002 25.617 170.595 25.383C170.188 25.1403 169.85 24.8283 169.581 24.447C169.312 24.0657 169.178 23.5587 169.178 22.926C169.178 22.3713 169.286 21.8383 169.503 21.327C169.728 20.807 170.049 20.3477 170.465 19.949C170.881 19.5503 171.384 19.234 171.973 19C172.571 18.7573 173.243 18.636 173.988 18.636C174.777 18.636 175.47 18.7703 176.068 19.039C176.675 19.299 177.195 19.6543 177.628 20.105L177.043 20.937Z" fill="#D60E0E"/>
<path d="M40.26 10.76C40.68 10.78 41.23 10.8 41.91 10.82C42.59 10.84 43.26 10.85 43.92 10.85C44.86 10.85 45.76 10.84 46.62 10.82C47.48 10.8 48.09 10.79 48.45 10.79C50.87 10.79 52.68 11.34 53.88 12.44C55.08 13.54 55.68 14.96 55.68 16.7C55.68 17.42 55.56 18.18 55.32 18.98C55.08 19.76 54.66 20.49 54.06 21.17C53.48 21.83 52.68 22.37 51.66 22.79C50.64 23.21 49.35 23.42 47.79 23.42H44.91V22.82H47.49C48.91 22.82 49.99 22.55 50.73 22.01C51.49 21.47 52 20.76 52.26 19.88C52.54 19 52.68 18.05 52.68 17.03C52.68 15.13 52.3 13.71 51.54 12.77C50.8 11.83 49.52 11.36 47.7 11.36C46.78 11.36 46.18 11.53 45.9 11.87C45.62 12.21 45.48 12.9 45.48 13.94V28.82C45.48 29.54 45.55 30.08 45.69 30.44C45.85 30.8 46.15 31.04 46.59 31.16C47.03 31.28 47.67 31.36 48.51 31.4V32C47.99 31.96 47.33 31.94 46.53 31.94C45.73 31.92 44.92 31.91 44.1 31.91C43.32 31.91 42.59 31.92 41.91 31.94C41.23 31.94 40.68 31.96 40.26 32V31.4C40.94 31.36 41.45 31.28 41.79 31.16C42.15 31.04 42.39 30.8 42.51 30.44C42.63 30.08 42.69 29.54 42.69 28.82V13.94C42.69 13.2 42.63 12.66 42.51 12.32C42.39 11.96 42.15 11.72 41.79 11.6C41.45 11.46 40.94 11.38 40.26 11.36V10.76ZM57.8088 10.76C58.2288 10.78 58.7788 10.8 59.4588 10.82C60.1388 10.84 60.8088 10.85 61.4688 10.85C62.4088 10.85 63.3088 10.84 64.1688 10.82C65.0288 10.8 65.6388 10.79 65.9988 10.79C67.6188 10.79 68.9588 11.02 70.0188 11.48C71.0988 11.94 71.8988 12.57 72.4188 13.37C72.9588 14.15 73.2288 15.03 73.2288 16.01C73.2288 16.61 73.1088 17.25 72.8688 17.93C72.6288 18.61 72.2088 19.25 71.6088 19.85C71.0288 20.45 70.2288 20.95 69.2088 21.35C68.1888 21.73 66.8988 21.92 65.3388 21.92H62.4588V21.32H65.0388C66.4588 21.32 67.5388 21.1 68.2788 20.66C69.0388 20.2 69.5488 19.6 69.8088 18.86C70.0888 18.1 70.2288 17.26 70.2288 16.34C70.2288 14.76 69.8488 13.54 69.0888 12.68C68.3488 11.8 67.0688 11.36 65.2488 11.36C64.3288 11.36 63.7288 11.53 63.4488 11.87C63.1688 12.21 63.0288 12.9 63.0288 13.94V28.82C63.0288 29.54 63.0888 30.08 63.2088 30.44C63.3288 30.8 63.5588 31.04 63.8988 31.16C64.2588 31.28 64.7788 31.36 65.4588 31.4V32C64.9988 31.96 64.4188 31.94 63.7188 31.94C63.0388 31.92 62.3488 31.91 61.6488 31.91C60.8688 31.91 60.1388 31.92 59.4588 31.94C58.7788 31.94 58.2288 31.96 57.8088 32V31.4C58.4888 31.36 58.9988 31.28 59.3388 31.16C59.6988 31.04 59.9388 30.8 60.0588 30.44C60.1788 30.08 60.2388 29.54 60.2388 28.82V13.94C60.2388 13.2 60.1788 12.66 60.0588 12.32C59.9388 11.96 59.6988 11.72 59.3388 11.6C58.9988 11.46 58.4888 11.38 57.8088 11.36V10.76ZM62.5788 21.41C63.6588 21.45 64.5088 21.5 65.1288 21.56C65.7488 21.6 66.2488 21.64 66.6288 21.68C67.0288 21.72 67.4088 21.77 67.7688 21.83C69.1088 22.05 70.0688 22.46 70.6488 23.06C71.2488 23.64 71.6888 24.55 71.9688 25.79L72.7188 28.85C72.9188 29.73 73.1188 30.37 73.3188 30.77C73.5388 31.15 73.8688 31.33 74.3088 31.31C74.6488 31.29 74.9288 31.18 75.1488 30.98C75.3888 30.78 75.6388 30.51 75.8988 30.17L76.3488 30.5C75.9288 31.12 75.4888 31.6 75.0288 31.94C74.5888 32.26 73.9588 32.42 73.1388 32.42C72.3988 32.42 71.7488 32.2 71.1888 31.76C70.6288 31.32 70.2088 30.46 69.9288 29.18L69.2688 26.18C69.0888 25.32 68.8788 24.58 68.6388 23.96C68.4188 23.32 68.0988 22.82 67.6788 22.46C67.2788 22.1 66.6788 21.92 65.8788 21.92H62.6388L62.5788 21.41ZM87.132 10.34C89.032 10.34 90.692 10.77 92.112 11.63C93.552 12.49 94.662 13.73 95.442 15.35C96.242 16.95 96.642 18.9 96.642 21.2C96.642 23.44 96.232 25.4 95.412 27.08C94.612 28.76 93.492 30.07 92.052 31.01C90.612 31.95 88.962 32.42 87.102 32.42C85.202 32.42 83.532 31.99 82.092 31.13C80.672 30.27 79.562 29.03 78.762 27.41C77.982 25.79 77.592 23.84 77.592 21.56C77.592 19.32 78.002 17.36 78.822 15.68C79.642 14 80.762 12.69 82.182 11.75C83.622 10.81 85.272 10.34 87.132 10.34ZM87.012 10.88C85.712 10.88 84.582 11.33 83.622 12.23C82.662 13.13 81.912 14.37 81.372 15.95C80.852 17.53 80.592 19.36 80.592 21.44C80.592 23.56 80.882 25.41 81.462 26.99C82.062 28.55 82.862 29.76 83.862 30.62C84.882 31.46 86.002 31.88 87.222 31.88C88.522 31.88 89.652 31.43 90.612 30.53C91.572 29.63 92.312 28.39 92.832 26.81C93.372 25.21 93.642 23.38 93.642 21.32C93.642 19.18 93.342 17.33 92.742 15.77C92.162 14.21 91.372 13.01 90.372 12.17C89.372 11.31 88.252 10.88 87.012 10.88ZM105.918 10.43C106.918 10.43 107.678 10.55 108.198 10.79C108.718 11.01 109.178 11.26 109.578 11.54C109.818 11.68 110.008 11.79 110.148 11.87C110.308 11.93 110.458 11.96 110.598 11.96C110.798 11.96 110.938 11.85 111.018 11.63C111.118 11.41 111.198 11.08 111.258 10.64H111.948C111.928 10.98 111.898 11.39 111.858 11.87C111.838 12.33 111.818 12.95 111.798 13.73C111.798 14.49 111.798 15.5 111.798 16.76H111.108C111.048 15.8 110.838 14.88 110.478 14C110.118 13.12 109.588 12.4 108.888 11.84C108.208 11.28 107.308 11 106.188 11C105.128 11 104.248 11.32 103.548 11.96C102.868 12.6 102.528 13.44 102.528 14.48C102.528 15.38 102.758 16.14 103.218 16.76C103.678 17.36 104.288 17.91 105.048 18.41C105.828 18.89 106.668 19.41 107.568 19.97C108.608 20.61 109.528 21.25 110.328 21.89C111.148 22.51 111.788 23.2 112.248 23.96C112.728 24.72 112.968 25.64 112.968 26.72C112.968 28 112.678 29.06 112.098 29.9C111.518 30.74 110.748 31.37 109.788 31.79C108.828 32.21 107.768 32.42 106.608 32.42C105.548 32.42 104.708 32.3 104.088 32.06C103.468 31.82 102.938 31.57 102.498 31.31C102.058 31.03 101.718 30.89 101.478 30.89C101.278 30.89 101.128 31 101.028 31.22C100.948 31.44 100.878 31.77 100.818 32.21H100.128C100.168 31.79 100.188 31.3 100.188 30.74C100.208 30.16 100.218 29.41 100.218 28.49C100.238 27.57 100.248 26.41 100.248 25.01H100.938C101.018 26.21 101.238 27.33 101.598 28.37C101.978 29.41 102.548 30.25 103.308 30.89C104.088 31.51 105.118 31.82 106.398 31.82C107.058 31.82 107.678 31.69 108.258 31.43C108.858 31.15 109.348 30.72 109.728 30.14C110.108 29.54 110.298 28.77 110.298 27.83C110.298 27.01 110.098 26.3 109.698 25.7C109.318 25.08 108.778 24.51 108.078 23.99C107.378 23.45 106.558 22.9 105.618 22.34C104.678 21.76 103.798 21.17 102.978 20.57C102.158 19.97 101.498 19.28 100.998 18.5C100.518 17.7 100.278 16.74 100.278 15.62C100.278 14.44 100.538 13.47 101.058 12.71C101.598 11.93 102.298 11.36 103.158 11C104.018 10.62 104.938 10.43 105.918 10.43Z" fill="#06A357"/>
<path d="M6.858 32.243C5.598 32.243 4.545 31.973 3.699 31.433C2.871 30.893 2.241 30.146 1.809 29.192C1.377 28.238 1.125 27.131 1.053 25.871L3.753 25.142C3.807 25.916 3.924 26.663 4.104 27.383C4.302 28.103 4.617 28.697 5.049 29.165C5.481 29.615 6.084 29.84 6.858 29.84C7.65 29.84 8.244 29.624 8.64 29.192C9.054 28.742 9.261 28.103 9.261 27.275C9.261 26.285 9.036 25.493 8.586 24.899C8.136 24.287 7.569 23.675 6.885 23.063L3.213 19.823C2.493 19.193 1.962 18.509 1.62 17.771C1.278 17.015 1.107 16.088 1.107 14.99C1.107 13.388 1.566 12.146 2.484 11.264C3.402 10.382 4.653 9.941 6.237 9.941C7.101 9.941 7.857 10.058 8.505 10.292C9.171 10.508 9.72 10.85 10.152 11.318C10.602 11.786 10.953 12.38 11.205 13.1C11.475 13.802 11.655 14.63 11.745 15.584L9.153 16.286C9.099 15.566 8.991 14.909 8.829 14.315C8.667 13.703 8.379 13.217 7.965 12.857C7.569 12.479 6.993 12.29 6.237 12.29C5.481 12.29 4.887 12.497 4.455 12.911C4.041 13.307 3.834 13.901 3.834 14.693C3.834 15.359 3.942 15.908 4.158 16.34C4.392 16.772 4.761 17.213 5.265 17.663L8.964 20.903C9.792 21.623 10.521 22.487 11.151 23.495C11.781 24.485 12.096 25.664 12.096 27.032C12.096 28.112 11.871 29.048 11.421 29.84C10.971 30.614 10.35 31.208 9.558 31.622C8.784 32.036 7.884 32.243 6.858 32.243ZM14.4627 32V10.13H19.8897C21.2037 10.13 22.2477 10.373 23.0217 10.859C23.8137 11.327 24.3897 12.011 24.7497 12.911C25.1097 13.811 25.2897 14.9 25.2897 16.178C25.2897 17.33 25.0827 18.329 24.6687 19.175C24.2727 20.021 23.6787 20.678 22.8867 21.146C22.0947 21.596 21.1047 21.821 19.9167 21.821H17.5137V32H14.4627ZM17.5137 19.634H18.9177C19.7997 19.634 20.4927 19.535 20.9967 19.337C21.5007 19.139 21.8607 18.797 22.0767 18.311C22.2927 17.807 22.4007 17.105 22.4007 16.205C22.4007 15.161 22.3197 14.36 22.1577 13.802C22.0137 13.244 21.6987 12.857 21.2127 12.641C20.7267 12.425 19.9707 12.317 18.9447 12.317H17.5137V19.634ZM26.0854 32L30.6484 20.552L26.1664 10.13H29.0014L32.3224 17.852L35.3464 10.13H38.1814L33.5914 20.795L38.3974 32H35.5624L31.9984 23.765L28.9204 32H26.0854Z" fill="#D60E0E"/>
</svg>